{"title":"Top.Cat.2011.BRRip.XviD.AC3-PRESTiGE","uid":6947723,"size":1789439421,"categoryP":"video","categoryS":"movies","magnet":"?xt=urn:btih:e4e722f1986283df42acc054196717db274941cd&amp;dn=Top.Cat.2011.BRRip.XviD.AC3-PRESTiGE&amp;tr=udp%3A%2F%2Ftracker.openbittorrent.com%3A80&amp;tr=udp%3A%2F%2Fopen.demonii.com%3A1337&amp;tr=udp%3A%2F%2Ftracker.coppersurfer.tk%3A6969&amp;tr=udp%3A%2F%2Fexodus.desync.com%3A6969","seeders":0,"leechers":0,"uploader":"crazy-torrent","files":2,"time":1326292700,"description":" &lt;a href=&quot; http://www.scenespeeds.com/&quot; rel=&quot;nofollow&quot; target=&quot;_NEW&quot;&gt; http://www.scenespeeds.com/&lt;/a&gt;\n\nComplete name: Top.Cat.2011.BRRip.XviD.AC3-PRESTiGE\nFormat: AVI\nFormat/Info: Audio Video Interleave\nFile size: 1.67 GiB\nDuration: 1h 30mn\nOverall bit rate: 2 634 Kbps\nSubs: N/A\nSource: Own Source\nEncoder: akosipalos iMDB: http://www.imdb.com/title/tt1821680/ Video\nID: 0\nFormat: MPEG-4 Visual\nFormat profile: Advanced Simple@L5\nFormat settings, BVOP: 2\nFormat settings, QPel: No\nFormat settings, GMC: No warppoints\nFormat settings, Matrix: Default (H.263)\nCodec ID: XVID\nCodec ID/Hint: XviD\nDuration: 1h 30mn\nBit rate: 2 178 Kbps\nWidth: 720 pixels\nHeight: 400 pixels\nDisplay aspect ratio: 16:9\nFrame rate: 24.000 fps\nColor space: YUV\nChroma subsampling: 4:2:0\nBit depth: 8 bits\nScan type: Progressive\nCompression mode: Lossy\nBits/(Pixel*Frame): 0.315\nStream size: 1.38 GiB (83%)\nWriting library: XviD 1.2.1 (UTC 2008-12-04) Audio\nID: 1\nFormat: AC-3\nFormat/Info: Audio Coding 3\nMode extension: CM (complete main)\nCodec ID: 2000\nDuration: 1h 30mn\nBit rate mode: Constant\nBit rate: 448 Kbps\nChannel(s): 6 channels\nChannel positions: Front: L C R, Side: L R, LFE\nSampling rate: 48.0 KHz\nBit depth: 16 bits\nCompression mode: Lossy\nStream size: 290 MiB (17%)\nAlignment: Aligned on interleaves\nInterleave, duration: 64 ms (1.54 video frames)\nInterleave, preload duration: 192 ms Plot:\n\nTop Cat and the gang face a new police chief, who is not at all happy with the poor officer Dribble's\nperformance trying to prevent Top Cat's scams\nCast:\n\nR ul Anaya,\nJorge Arvizu\nand\nMario Casta eda Partido    \n        &lt;a href=&quot;\nhttp://www.scenespeeds.com/&quot; rel=&quot;nofollow&quot; target=&quot;_NEW&quot;&gt;\nhttp://www.scenespeeds.com/&lt;/a&gt;\t","torrent":{"xt":"urn:btih:e4e722f1986283df42acc054196717db274941cd","amp;dn":"Top.Cat.2011.BRRip.XviD.AC3-PRESTiGE","amp;tr":["udp%3A%2F%2Ftracker.openbittorrent.com%3A80","udp%3A%2F%2Fopen.demonii.com%3A1337","udp%3A%2F%2Ftracker.coppersurfer.tk%3A6969","udp%3A%2F%2Fexodus.desync.com%3A6969"],"infoHash":"e4e722f1986283df42acc054196717db274941cd","infoHashBuffer":{"type":"Buffer","data":[228,231,34,241,152,98,131,223,66,172,192,84,25,103,23,219,39,73,65,205]},"announce":[],"urlList":[]}}